<svg xmlns="http://www.w3.org/2000/svg" viewBox="0 0 100 100" width="100" height="100" role="img" aria-label="NEGH (NEveGHiaccio)"><title>NEGH (NEveGHiaccio)</title><rect width="100" height="100" rx="20" fill="#3E86B0"/><g fill="none" stroke="#ffffff" color="#ffffff" stroke-width="4.5" stroke-linecap="round" stroke-linejoin="round"><path d="M50.0 16.0L50.0 64.0"/><path d="M70.8 28.0L29.2 52.0"/><path d="M70.8 52.0L29.2 28.0"/><path d="M50.0 25.0L44.9 18.9"/><path d="M50.0 25.0L55.1 18.9"/><path d="M63.0 32.5L65.7 25.0"/><path d="M63.0 32.5L70.9 33.9"/><path d="M63.0 47.5L70.9 46.1"/><path d="M63.0 47.5L65.7 55.0"/><path d="M50.0 55.0L55.1 61.1"/><path d="M50.0 55.0L44.9 61.1"/><path d="M37.0 47.5L34.3 55.0"/><path d="M37.0 47.5L29.1 46.1"/><path d="M37.0 32.5L29.1 33.9"/><path d="M37.0 32.5L34.3 25.0"/></g><text x="50" y="90" text-anchor="middle" font-family="Arial, Helvetica, sans-serif" font-weight="700" font-size="15" letter-spacing="0.5" fill="#ffffff">NEGH</text></svg>